<svg xmlns="http://www.w3.org/2000/svg" width="75" height="75" viewBox="0 0 75 75">
  <defs>
    <style>
      .cls-1 {
        opacity: 0.6;
      }
    </style>
  </defs>
  <path id="Icon_awesome-user-circle" data-name="Icon awesome-user-circle" class="cls-1" d="M37.5.563A37.5,37.5,0,1,0,75,38.063,37.494,37.494,0,0,0,37.5.563Zm0,14.516A13.306,13.306,0,1,1,24.194,28.385,13.307,13.307,0,0,1,37.5,15.079Zm0,52.016A28.976,28.976,0,0,1,15.348,56.782,16.859,16.859,0,0,1,30.242,47.74a3.7,3.7,0,0,1,1.074.166A20.02,20.02,0,0,0,37.5,48.95a19.944,19.944,0,0,0,6.184-1.043,3.7,3.7,0,0,1,1.074-.166,16.859,16.859,0,0,1,14.894,9.042A28.976,28.976,0,0,1,37.5,67.095Z" transform="translate(0 -0.563)"/>
</svg>
